# xmcd CD database file
#
# Track frame offsets:
#	150
#	38504
#	58744
#	85838
#	102528
#	131186
#	155978
#	176854
#	188498
#	212160
#	241563
#	263314
#
# Disc length: 3810 seconds
#
# Revision: 8
# Processed by: cddbd v1.5.2PL0 Copyright (c) Steve Scherf et al.
# Submitted via: cdripper 1,0,33,916
#
DISCID=a00ee00c
DTITLE=Oliver Shanti and Friends - Well Balanced
DYEAR=1995
DGENRE=New Age
TTITLE0=Well Balanced
TTITLE1=Indian Ceremony
TTITLE2=Fight Without Fear
TTITLE3=You Can Hear Them Dancing
TTITLE4=Heya Heya
TTITLE5=Axtú Leman Sumix Sacred Mountain
TTITLE6=Four Circles Of Life
TTITLE7=We Could Have Been Brothers
TTITLE8=Chief White Bears Trance Dance
TTITLE9=Wilderness
TTITLE10=Amitabha
TTITLE11=Medicine Man's Other Room
EXTD=YEAR: 1995
EXTT0=
EXTT1=
EXTT2=
EXTT3=
EXTT4=
EXTT5=
EXTT6=
EXTT7=
EXTT8=
EXTT9=
EXTT10=
EXTT11=
PLAYORDER=
